<svg width="42" height="26" viewBox="0 0 42 26" fill="none" xmlns="http://www.w3.org/2000/svg">
<path d="M1.88329 12.6455C0.1766 4.29079 9.44167 -2.58945 17 3.06228M1.88329 12.6455C10.1731 13.1369 15.2933 9.451 17 3.06228M1.88329 12.6455C2.61477 7.97666 9.78297 0.703408 17 3.06228M1.88329 12.6455C0.420389 15.8398 0.90803 19.0342 2.37095 21" stroke="#42AE40" stroke-width="1.5" stroke-linecap="round" stroke-linejoin="round"/>
<path d="M25.212 12.088H24.302V11.178H26.192V15.07H28.544V15.98H26.192V20.446H25.212V12.088ZM17.12 18.612L16.49 17.954L19.85 14.986V13.124H17.148V12.214H23.448V13.124H20.83V15.07L23.924 17.674L23.294 18.332L20.284 15.812L17.12 18.612ZM18.8 23.4V19.62H19.78V22.49H26.738V23.4H18.8ZM38.2235 20.418H30.2715L30.2995 13.124V12.648H36.3195V13.558H31.2795L31.2515 19.508H38.2235V12.088H37.3135V11.178H39.2035V23.61H38.2235V20.418Z" fill="#50CF4D"/>
</svg>
