<svg width="20" height="20" viewBox="0 0 20 20" fill="none" xmlns="http://www.w3.org/2000/svg">
<path d="M16.4318 15.397C16.6873 15.6113 16.722 15.9938 16.491 16.2343C15.1305 17.651 13.339 18.588 11.3873 18.8924C9.23618 19.228 7.03633 18.7725 5.19538 17.6102C3.35444 16.448 1.9972 14.6578 1.37516 12.5714C0.753126 10.485 0.908465 8.24389 1.8124 6.26327C2.71632 4.28266 4.30756 2.69684 6.29125 1.79968C8.27494 0.902522 10.5166 0.754836 12.6008 1.38399C14.6851 2.01315 16.4706 3.37649 17.6266 5.2214C18.6754 6.89524 19.1414 8.86253 18.9627 10.8186C18.9324 11.1507 18.6207 11.3751 18.2914 11.3225V11.3225C17.962 11.27 17.7401 10.9604 17.767 10.628C17.9018 8.96108 17.4969 7.28881 16.6032 5.8626C15.6024 4.26525 14.0564 3.08485 12.2519 2.54011C10.4473 1.99538 8.50642 2.12325 6.7889 2.90003C5.07139 3.6768 3.69367 5.04983 2.91103 6.76468C2.12839 8.47953 1.9939 10.4199 2.53247 12.2264C3.07104 14.0328 4.24616 15.5828 5.84008 16.5891C7.43401 17.5954 9.33867 17.9898 11.2011 17.6992C12.8641 17.4398 14.3927 16.65 15.5636 15.4559C15.7971 15.2178 16.1764 15.1826 16.4318 15.397V15.397Z" fill="#CC2E2E"/>
<g clip-path="url(#clip0_80_11)">
<path d="M7.33334 7.33325L10 9.99992M10 9.99992L7.33334 12.6666M10 9.99992L12.6667 7.33325M10 9.99992L12.6667 12.6666" stroke="#CC2E2E" stroke-linecap="round" stroke-linejoin="round"/>
</g>
<defs>
<clipPath id="clip0_80_11">
<rect width="8" height="8" fill="white" transform="translate(6 6)"/>
</clipPath>
</defs>
</svg>
