<svg width="18" height="18" viewBox="0 0 18 18" fill="none" xmlns="http://www.w3.org/2000/svg">
<path d="M15.4318 14.397C15.6873 14.6113 15.722 14.9938 15.491 15.2343C14.1305 16.651 12.339 17.588 10.3873 17.8924C8.23618 18.228 6.03633 17.7725 4.19538 16.6102C2.35444 15.448 0.997198 13.6578 0.375162 11.5714C-0.246874 9.48503 -0.0915348 7.24389 0.812395 5.26327C1.71632 3.28266 3.30756 1.69684 5.29125 0.799683C7.27494 -0.0974783 9.5166 -0.245164 11.6008 0.383993C13.6851 1.01315 15.4706 2.37649 16.6266 4.2214C17.6754 5.89524 18.1414 7.86253 17.9627 9.81861C17.9324 10.1507 17.6207 10.3751 17.2914 10.3225V10.3225C16.962 10.27 16.7401 9.96041 16.767 9.62801C16.9018 7.96108 16.4969 6.28881 15.6032 4.8626C14.6024 3.26525 13.0564 2.08485 11.2519 1.54011C9.44728 0.995379 7.50642 1.12325 5.7889 1.90003C4.07139 2.6768 2.69367 4.04983 1.91103 5.76468C1.12839 7.47953 0.993898 9.41995 1.53247 11.2264C2.07104 13.0328 3.24616 14.5828 4.84008 15.5891C6.43401 16.5954 8.33867 16.9898 10.2011 16.6992C11.8641 16.4398 13.3927 15.65 14.5636 14.4559C14.7971 14.2178 15.1764 14.1826 15.4318 14.397V14.397Z" fill="#7F7F7F"/>
</svg>
